<svg viewBox="0 0 512 512" xmlns="http://www.w3.org/2000/svg"><path d="m332 374c-11.046875 0-20 8.953125-20 20 0 43.007812-34.988281 78-78 78s-78-34.992188-78-78v-57.480469l71.101562-103.171875c.4375-.636718.828126-1.292968 1.183594-1.960937 1.355469-1.265625 2.691406-2.554688 3.996094-3.882813 25.613281-26.039062 39.71875-62.441406 39.71875-102.503906 0-.34375-.007812-.6875-.027344-1.027344l.027344-77.472656c0-25.640625-20.859375-46.5-46.5-46.5h-37.5c-11.046875 0-20 8.953125-20 20v20c0 11.046875 8.953125 20 20 20s20-8.953125 20-20h17.5c3.585938 0 6.5 2.914062 6.5 6.492188l-.027344 78.5c0 .324218.007813.644531.023438.960937-.429688 58.613281-40.667969 101.046875-95.996094 101.046875-55.625 0-96-42.898438-96-102 0-.621094-.039062-1.238281-.09375-1.847656.058594-.609375.09375-1.222656.09375-1.847656v-74.804688c0-3.585938 2.914062-6.5 6.5-6.5h16.523438c.523437 10.582031 9.265624 19 19.976562 19 11.046875 0 20-8.953125 20-20v-19c0-11.046875-8.953125-20-20-20h-36.5c-25.640625 0-46.5 20.859375-46.5 46.5v74.804688c0 .625.0390625 1.238281.09375 1.847656-.0546875.609375-.09375 1.226562-.09375 1.847656 0 40.0625 14.105469 76.464844 39.71875 102.503906.800781.8125 1.609375 1.613282 2.425781 2.402344.511719 1.1875 1.140625 2.339844 1.902344 3.441406l71.953125 104.410156v56.242188c0 65.066406 52.933594 118 118 118s118-52.933594 118-118c0-11.046875-8.953125-20-20-20zm-196-107c6.886719 0 13.675781-.488281 20.324219-1.441406l-20.75 30.109375-20.851563-30.253907c6.953125 1.046876 14.0625 1.585938 21.277344 1.585938zm336-52.558594v-134.441406c0-44.113281-35.886719-80-80-80s-80 35.886719-80 80v214c0 11.046875 8.953125 20 20 20s20-8.953125 20-20v-214c0-22.054688 17.945312-40 40-40s40 17.945312 40 40v134.441406c-23.277344 8.253906-40 30.484375-40 56.558594 0 33.085938 26.914062 60 60 60s60-26.914062 60-60c0-26.074219-16.722656-48.304688-40-56.558594zm-20 76.558594c-11.027344 0-20-8.972656-20-20s8.972656-20 20-20 20 8.972656 20 20-8.972656 20-20 20zm0 0"/></svg>